PathFileType	4	(X/Y/Z)	F:\biomechanics\vid_Sports2D\vid_Sports2D_px_person00.trc
DataRate	CameraRate	NumFrames	NumMarkers	Units	OrigDataRate	OrigDataStartFrame	OrigNumFrames
250.0	250.0	6	22	m	250.0	404	808
Frame#	Time	Hip			RHip			RKnee			RAnkle			RBigToe			RSmallToe			RHeel			LHip			LKnee			LAnkle			LBigToe			LSmallToe			LHeel			Neck			Head			Nose			RShoulder			RElbow			RWrist			LShoulder			LElbow			LWrist			
		X1	Y1	Z1	X2	Y2	Z2	X3	Y3	Z3	X4	Y4	Z4	X5	Y5	Z5	X6	Y6	Z6	X7	Y7	Z7	X8	Y8	Z8	X9	Y9	Z9	X10	Y10	Z10	X11	Y11	Z11	X12	Y12	Z12	X13	Y13	Z13	X14	Y14	Z14	X15	Y15	Z15	X16	Y16	Z16	X17	Y17	Z17	X18	Y18	Z18	X19	Y19	Z19	X20	Y20	Z20	X21	Y21	Z21	X22	Y22	Z22
404	1.6180024783147462	256.1863838063404	304.0161797001641	0.0	260.14578084738804	303.9395871241865	0.0	303.8219222613611	372.6894558734002	0.0	273.9427511690659	440.4532408117506	0.0	297.5686822166486	458.46455091597045	0.0	290.2436235270628	461.30062864934763	0.0	263.04875182335456	447.36297711063526	0.0	254.15788395042082	301.2972885993323	0.0	282.04674476968927	368.74314667613305	0.0	263.6484538799895	430.8366594945495	0.0	297.00064961166544	443.84656145085063	0.0	291.37472655983487	438.94682749794407	0.0	251.4263844689146	436.8876491436592	0.0	256.0050139518117	206.57774276878155	0.0	242.8266581208998	158.88716335506612	0.0	266.4815360048258	177.17422632555136	0.0	267.9422829343904	219.4394867876759	0.0	322.8288495854073	207.07413974196837	0.0	305.04268337800386	173.9479705335198	0.0	250.6647709124713	216.18300633510643	0.0	284.35483678194265	210.82740841365893	0.0	289.29657653453984	186.2180887089934	0.0
405	1.6220074349442382	256.6814700037606	303.0155547990463	0.0	260.6029813338067	302.9841765034248	0.0	303.5259096543746	372.0921541473308	0.0	274.1702794020684	440.19886212300696	0.0	297.6025403786379	458.45929995053456	0.0	290.18996653619496	461.2562908615433	0.0	263.2792043008129	447.10414490855493	0.0	254.73653812388866	300.363038234784	0.0	282.06497748229276	368.2374081203805	0.0	264.06738045753116	430.6621941215599	0.0	297.1682328357312	443.6549395225255	0.0	291.74053529905814	438.84577700554445	0.0	251.76942638278433	436.7599636020516	0.0	256.1624430047195	205.64180891465145	0.0	242.89245020751594	157.97207920053864	0.0	266.5271975587978	176.30374817826328	0.0	268.0643179547576	218.43875707372317	0.0	322.8885022910225	205.74862764435326	0.0	304.7371029786292	172.78704707853373	0.0	250.86531544279475	215.25322918124442	0.0	284.7142557844985	209.82103753134027	0.0	289.20177391535236	185.01231296955308	0.0
406	1.6260123915737301	257.19026284612494	302.002022486019	0.0	261.06874779377495	302.01931954838307	0.0	303.2141181259889	371.4767835467531	0.0	274.40035033480905	439.93500279005343	0.0	297.6300805351999	458.44970772963427	0.0	290.1287525920231	461.2072966384834	0.0	263.5142177079019	446.83494383261785	0.0	255.32333909952342	299.4232007154164	0.0	282.11530503679904	367.72540203952	0.0	264.52613384568554	430.48936225609253	0.0	297.3548271067468	443.4839492531571	0.0	292.1299448948078	438.7673141458287	0.0	252.15578062456177	436.6365525133945	0.0	256.32799179559987	204.70020634788168	0.0	242.96327125477023	157.0531028119685	0.0	266.5762903172265	175.42920905367427	0.0	268.18666491223325	217.43728201021693	0.0	322.9461635650957	204.42488275029834	0.0	304.4410833982709	171.6266665293021	0.0	251.07344558797885	214.32009407185313	0.0	285.08962261831164	208.83182250456	0.0	289.1214166254177	183.79902862962618	0.0
407	1.630017348203222	257.7120301026454	300.97654898017277	0.0	261.5430033130172	301.0459931202415	0.0	302.8864713674576	370.84359637645844	0.0	274.63309944188296	439.66137427850833	0.0	297.6522440658049	458.43502562184955	0.0	290.0614017101747	461.1529483161138	0.0	263.7543884583105	446.55468042990043	0.0	255.91769143812454	298.47815636151904	0.0	282.1957750571608	367.20568079244384	0.0	265.02449838101336	430.31557958954494	0.0	297.56044481470445	443.3307918653309	0.0	292.54190320893093	438.70812020458874	0.0	252.5865690581735	436.5146846387777	0.0	256.5008258147063	203.75310972269298	0.0	243.0383628639889	156.13087354552027	0.0	266.62865943635524	174.55156473891367	0.0	268.3105587612062	216.43542414323485	0.0	323.00256381782833	203.10264561219148	0.0	304.1559531845986	170.46746019584145	0.0	251.28699434530108	213.3835711926886	0.0	285.47810538349927	207.85917963065148	0.0	289.05324831778347	182.57950657514658	0.0
408	1.634022304832714	258.2461121470051	299.94009177750803	0.0	262.02559950065375	300.06518656733573	0.0	302.5430199005587	370.1932651015389	0.0	274.868804989427	439.3778765363347	0.0	297.67036115075734	458.4147380304456	0.0	289.9896094073688	461.09276506987936	0.0	264.0002764761436	446.2628947850528	0.0	256.51938238673387	297.5281398364643	0.0	282.3041806722727	366.67707512545223	0.0	265.5625582248403	430.13842202346314	0.0	297.78441259964444	443.1927588347356	0.0	292.9748794152081	438.6651439865013	0.0	253.06244673760497	436.3919203189869	0.0	256.67995162090966	202.80094316159412	0.0	243.11709382355696	155.20614217610446	0.0	266.684288435238	173.67194853706667	0.0	268.4371429326924	215.4336565002917	0.0	323.0583410276682	201.7816864044787	0.0	303.8828565537168	169.31022290396848	0.0	251.50385026273614	212.4437029843981	0.0	285.8771197682499	206.9026330298391	0.0	288.99515552801387	181.35526335201817	0.0
409	1.638027261462206	258.7916218813284	298.89349696854885	0.0	262.5161770818191	299.0778652450915	0.0	302.18391126372853	369.52667206659913	0.0	275.10794005986565	439.0845181973903	0.0	297.6861866114123	458.38856297136084	0.0	289.9152760254174	461.0265360039679	0.0	264.25242106995074	445.95942235569044	0.0	257.12823962842305	296.5731814539215	0.0	282.43792556619314	366.1386612546096	0.0	266.14047483193565	429.955654554609	0.0	298.0254924775714	443.06688790330065	0.0	293.42677228282093	438.6354066811326	0.0	253.58390591223085	436.2660201547756	0.0	256.86411301286887	201.84434815994678	0.0	243.19900161347311	154.27958470135607	0.0	266.74335298240476	172.79152894587202	0.0	268.567523737377	214.43254478892524	0.0	323.11409533239083	200.46181622352492	0.0	303.6228905212546	168.15578253037887	0.0	251.72172248941013	211.50060022744518	0.0	286.28402138542276	205.96131183286437	0.0	288.9451581979168	180.12801760779945	0.0
